<?xml version="1.0" encoding="UTF-8" standalone="no"?>
<svg width="43px" height="43px" viewBox="0 0 43 43" version="1.1" xmlns="http://www.w3.org/2000/svg" xmlns:xlink="http://www.w3.org/1999/xlink">
    <!-- Generator: Sketch 39.1 (31720) - http://www.bohemiancoding.com/sketch -->
    <title>Artboard 3 Copy</title>
    <desc>Created with Sketch.</desc>
    <defs>
        <polygon id="path-1" points="11.9962024 24 0 24 0 0.00757142857 11.9962024 0.00757142857 23.9924048 0.00757142857 23.9924048 24"></polygon>
    </defs>
    <g id="Page-1" stroke="none" stroke-width="1" fill="none" fill-rule="evenodd">
        <g id="Artboard-3-Copy">
            <g id="Page-1-Copy" transform="translate(10.000000, 9.000000)">
                <g id="Group-3" transform="translate(0.000000, 0.040048)">
                    <mask id="mask-2" fill="white">
                        <use xlink:href="#path-1"></use>
                    </mask>
                    <g id="Clip-2"></g>
                    <path d="M11.9962143,0.00757142857 C8.73821429,0.00757142857 8.32969048,0.0213809524 7.05021429,0.0797619048 C5.77330952,0.138 4.90130952,0.340809524 4.13821429,0.637333333 C3.34935714,0.943904762 2.68035714,1.35409524 2.01345238,2.021 C1.34654762,2.68795238 0.936357143,3.35695238 0.629785714,4.14580952 C0.333214286,4.90885714 0.130452381,5.78090476 0.0721666667,7.0577619 C0.0137857143,8.33728571 -2.38095237e-05,8.74580952 -2.38095237e-05,12.0038095 C-2.38095237e-05,15.2617619 0.0137857143,15.6702857 0.0721666667,16.9498095 C0.130452381,18.2266667 0.333214286,19.0987143 0.629785714,19.8617619 C0.936357143,20.650619 1.34654762,21.319619 2.01345238,21.9865714 C2.68035714,22.6534762 3.34935714,23.0636667 4.13821429,23.3702381 C4.90130952,23.6667619 5.77330952,23.8695714 7.05021429,23.9278095 C8.32969048,23.9862381 8.73821429,24 11.9962143,24 C15.2542143,24 15.6626905,23.9862381 16.9422143,23.9278095 C18.219119,23.8695714 19.091119,23.6667619 19.8542143,23.3702381 C20.6430714,23.0636667 21.3120714,22.6534762 21.9789762,21.9865714 C22.645881,21.319619 23.0560714,20.650619 23.3626429,19.8617619 C23.6592143,19.0987143 23.8619762,18.2266667 23.9202619,16.9498095 C23.9786429,15.6702857 23.9924048,15.2617619 23.9924048,12.0038095 C23.9924048,8.74580952 23.9786429,8.33728571 23.9202619,7.0577619 C23.8619762,5.78090476 23.6592143,4.90885714 23.3626429,4.14580952 C23.0560714,3.35695238 22.645881,2.68795238 21.9789762,2.021 C21.3120714,1.35409524 20.6430714,0.943904762 19.8542143,0.637333333 C19.091119,0.340809524 18.219119,0.138 16.9422143,0.0797619048 C15.6626905,0.0213809524 15.2542143,0.00757142857 11.9962143,0.00757142857 M11.9962143,2.16904762 C15.1993571,2.16904762 15.5787381,2.18128571 16.8436905,2.239 C18.0133095,2.29233333 18.6485,2.4877619 19.0712619,2.65204762 C19.6311667,2.86966667 20.0308333,3.12961905 20.4505952,3.54942857 C20.8703571,3.96919048 21.1303571,4.36880952 21.3479286,4.9287619 C21.5122143,5.35147619 21.7076429,5.98666667 21.7610238,7.15628571 C21.8187381,8.4212381 21.8309286,8.80066667 21.8309286,12.0038095 C21.8309286,15.2069048 21.8187381,15.5863333 21.7610238,16.8512857 C21.7076429,18.0209048 21.5122143,18.6560952 21.3479286,19.0788095 C21.1303571,19.6387619 20.8703571,20.038381 20.4505952,20.4581429 C20.0308333,20.8779524 19.6311667,21.1379048 19.0712619,21.3555238 C18.6485,21.5198095 18.0133095,21.7152381 16.8436905,21.7685714 C15.5789286,21.8262857 15.1995476,21.8385238 11.9962143,21.8385238 C8.79288095,21.8385238 8.4135,21.8262857 7.1487381,21.7685714 C5.97911905,21.7152381 5.34388095,21.5198095 4.92116667,21.3555238 C4.3612619,21.1379048 3.96159524,20.8779524 3.54183333,20.4581429 C3.12207143,20.038381 2.86207143,19.6387619 2.64445238,19.0788095 C2.48021429,18.6560952 2.28478571,18.0209048 2.23140476,16.8512857 C2.17369048,15.5863333 2.1615,15.2069048 2.1615,12.0038095 C2.1615,8.80066667 2.17369048,8.4212381 2.23140476,7.15628571 C2.28478571,5.98666667 2.48021429,5.35147619 2.64445238,4.9287619 C2.86207143,4.36880952 3.12207143,3.96919048 3.54183333,3.54942857 C3.96159524,3.12961905 4.3612619,2.86966667 4.92116667,2.65204762 C5.34388095,2.4877619 5.97911905,2.29233333 7.14869048,2.239 C8.41369048,2.18128571 8.79307143,2.16904762 11.9962143,2.16904762" id="Fill-1" fill="#404042" mask="url(#mask-2)"></path>
                </g>
                <path d="M11.9962143,16.0425714 C9.78778571,16.0425714 7.99745238,14.2522857 7.99745238,12.0438571 C7.99745238,9.83538095 9.78778571,8.04509524 11.9962143,8.04509524 C14.2046429,8.04509524 15.9949286,9.83538095 15.9949286,12.0438571 C15.9949286,14.2522857 14.2046429,16.0425714 11.9962143,16.0425714 M11.9962143,5.88361905 C8.59402381,5.88361905 5.83597619,8.64161905 5.83597619,12.0438571 C5.83597619,15.4460476 8.59402381,18.2040476 11.9962143,18.2040476 C15.3984048,18.2040476 18.1564524,15.4460476 18.1564524,12.0438571 C18.1564524,8.64161905 15.3984048,5.88361905 11.9962143,5.88361905" id="Fill-4" fill="#404042"></path>
                <path d="M19.8393714,5.64022381 C19.8393714,6.43527143 19.1948476,7.07974762 18.3998476,7.07974762 C17.6048,7.07974762 16.9602762,6.43527143 16.9602762,5.64022381 C16.9602762,4.84517619 17.6048,4.2007 18.3998476,4.2007 C19.1948476,4.2007 19.8393714,4.84517619 19.8393714,5.64022381" id="Fill-6" fill="#404042"></path>
            </g>
        </g>
    </g>
</svg>