<?xml version="1.0" encoding="UTF-8" standalone="no"?>
<svg width="62px" height="62px" viewBox="0 0 62 62" version="1.1" xmlns="http://www.w3.org/2000/svg" xmlns:xlink="http://www.w3.org/1999/xlink">
    <!-- Generator: Sketch 39.1 (31720) - http://www.bohemiancoding.com/sketch -->
    <title>Group 5</title>
    <desc>Created with Sketch.</desc>
    <defs></defs>
    <g id="Page-1" stroke="none" stroke-width="1" fill="none" fill-rule="evenodd">
        <g id="iPhone-6-Copy-20" transform="translate(-219.000000, -800.000000)">
            <g id="Group-2" transform="translate(0.000000, 721.000000)">
                <g id="Group-5" transform="translate(220.000000, 80.000000)">
                    <g id="Group-2-Copy-4" stroke="#FFFFFF">
                        <ellipse id="Oval-1" cx="30" cy="30" rx="30" ry="30"></ellipse>
                    </g>
                    <g id="ic_headset_black_24px-copy" transform="translate(18.000000, 19.000000)">
                        <g id="Group">
                            <polygon id="Shape" opacity="0.1" points="0 0 24 0 24 24 0 24"></polygon>
                            <path d="M12,1 C7.03,1 3,5.03 3,10 L3,17 C3,18.66 4.34,20 6,20 L9,20 L9,12 L5,12 L5,10 C5,6.13 8.13,3 12,3 C15.87,3 19,6.13 19,10 L19,12 L15,12 L15,20 L18,20 C19.66,20 21,18.66 21,17 L21,10 C21,5.03 16.97,1 12,1 L12,1 Z" id="Shape" fill="#FFFFFF"></path>
                        </g>
                    </g>
                </g>
            </g>
        </g>
    </g>
</svg>