<?xml version="1.0" encoding="UTF-8"?>
<svg width="10px" height="14px" viewBox="0 0 10 14" version="1.1" xmlns="http://www.w3.org/2000/svg" xmlns:xlink="http://www.w3.org/1999/xlink">
    <!-- Generator: Sketch 40.2 (33826) - http://www.bohemiancoding.com/sketch -->
    <title>Page 1</title>
    <desc>Created with Sketch.</desc>
    <defs></defs>
    <g id="Page-1" stroke="none" stroke-width="1" fill="none" fill-rule="evenodd">
        <g id="small-style-copy" transform="translate(-52.000000, -506.000000)">
            <g id="Page-1" transform="translate(49.000000, 505.000000)">
                <polygon id="Stroke-1" stroke-opacity="0.00784313771" stroke="#000000" stroke-width="1.33333335e-11" points="0 0 15.999999 0 15.999999 15.999999 0 15.999999"></polygon>
                <path d="M7.99999952,1.33333325 C5.41999975,1.33333325 3.33333313,3.41999987 3.33333313,5.99999964 C3.33333313,9.49999943 7.99999952,14.6666658 7.99999952,14.6666658 C7.99999952,14.6666658 12.6666659,9.49999943 12.6666659,5.99999964 C12.6666659,3.41999987 10.5799992,1.33333325 7.99999952,1.33333325 L7.99999952,1.33333325 Z M7.99999952,7.66666621 C7.07999944,7.66666621 6.33333295,6.91999965 6.33333295,5.99999964 C6.33333295,5.07999962 7.07999944,4.33333307 7.99999952,4.33333307 C8.91999953,4.33333307 9.66666609,5.07999962 9.66666609,5.99999964 C9.66666609,6.91999965 8.91999953,7.66666621 7.99999952,7.66666621 L7.99999952,7.66666621 Z" id="Fill-2" fill="#404042"></path>
            </g>
        </g>
    </g>
</svg>