<?xml version="1.0" encoding="UTF-8" standalone="no"?>
<svg width="185px" height="32px" viewBox="0 0 185 32" version="1.1" xmlns="http://www.w3.org/2000/svg" xmlns:xlink="http://www.w3.org/1999/xlink">
    <!-- Generator: Sketch 39.1 (31720) - http://www.bohemiancoding.com/sketch -->
    <title>Page 1 Copy 2</title>
    <desc>Created with Sketch.</desc>
    <defs>
        <polygon id="path-1" points="0 31.8271617 184.678323 31.8271617 184.678323 0 0 0"></polygon>
    </defs>
    <g id="Page-1" stroke="none" stroke-width="1" fill="none" fill-rule="evenodd">
        <g id="Desktop-HD-Copy-9" transform="translate(-36.000000, -34.000000)">
            <g id="Page-1-Copy-2" transform="translate(36.000000, 34.000000)">
                <path d="M35.5676168,15.6087377 L37.4048383,15.6087377 C38.2213174,15.6087377 38.9814611,15.5257677 39.684503,15.3594443 C40.3875449,15.193121 40.9961198,14.9168096 41.5104192,14.5312766 C42.0243353,14.1455521 42.4288383,13.6393006 42.7239281,13.0115641 C43.0184431,12.3842108 43.165988,11.6164024 43.165988,10.7092886 C43.165988,9.92327665 43.0184431,9.23901317 42.7239281,8.6564982 C42.4288383,8.07494132 42.032,7.59455808 41.5328383,7.21630659 C41.0338683,6.83862994 40.4477126,6.55522874 39.7751377,6.36552814 C39.101988,6.17678563 38.3949222,6.08212695 37.654515,6.08212695 L35.5676168,6.08212695 L35.5676168,15.6087377 L35.5676168,15.6087377 Z M32.0292216,2.81601916 L37.3366228,2.81601916 C38.6217964,2.81601916 39.8431617,2.95992335 41.0001437,3.24677365 C42.1565509,3.5341988 43.165988,3.99925269 44.0278802,4.64193533 C44.8901557,5.28480958 45.5740359,6.12025868 46.0806707,7.14847425 C46.5873054,8.17668982 46.8408144,9.42411497 46.8408144,10.8909413 C46.8408144,12.1912527 46.5945868,13.337121 46.1034731,14.3272048 C45.6117844,15.3176719 44.9503234,16.1494802 44.1188982,16.8222467 C43.2870898,17.4952048 42.3270898,18.0054802 41.2383234,18.3534563 C40.1495569,18.7014323 39.007521,18.8750371 37.8131737,18.8750371 L32.0292216,18.8750371 L32.0292216,2.81601916 L32.0292216,2.81601916 Z" id="Fill-1" fill="#404041"></path>
                <mask id="mask-2" fill="white">
                    <use xlink:href="#path-1"></use>
                </mask>
                <g id="Clip-4"></g>
                <polygon id="Fill-3" fill="#404041" mask="url(#mask-2)" points="52.3274731 18.875018 55.8658683 18.875018 55.8658683 2.816 52.3274731 2.816"></polygon>
                <path d="M70.1915593,6.73996647 C69.9041341,6.37723593 69.5145772,6.10858922 69.0234635,5.9346012 C68.5319665,5.76099641 68.0671042,5.67419401 67.6284934,5.67419401 C67.3711521,5.67419401 67.1069126,5.70446946 66.8348168,5.76463713 C66.5625293,5.82518802 66.305188,5.91984671 66.0633677,6.04803832 C65.8213557,6.17680479 65.6245653,6.3471521 65.4737629,6.55831377 C65.322194,6.77043353 65.2468886,7.02739162 65.2468886,7.32957126 C65.2468886,7.81397844 65.4285413,8.18437365 65.7912719,8.44133174 C66.1540024,8.69867305 66.6113916,8.9174994 67.1634395,9.0991521 C67.7154874,9.28022994 68.3091162,9.46188263 68.9441341,9.64353533 C69.5791521,9.82461317 70.1723976,10.0819545 70.7248287,10.4147928 C71.2763018,10.7474395 71.7340743,11.1935234 72.0968048,11.7528527 C72.4597269,12.3123737 72.641188,13.0608287 72.641188,13.9984096 C72.641188,14.8907689 72.4744814,15.6693078 72.142218,16.3347928 C71.8093796,17.0000862 71.3596551,17.5521341 70.7924695,17.9903617 C70.2256671,18.4291641 69.5678467,18.7543377 68.8193916,18.9654994 C68.0709365,19.1772359 67.2805174,19.2830084 66.4490922,19.2830084 C65.4057389,19.2830084 64.4378826,19.1243497 63.5455234,18.8068407 C62.6533557,18.4893317 61.8219305,17.9754156 61.0506731,17.264709 L63.5685174,14.497188 C63.9312479,14.9814036 64.3886371,15.3558228 64.940685,15.6200623 C65.4927329,15.8848766 66.0633677,16.0172838 66.6531641,16.0172838 C66.940206,16.0172838 67.2316551,15.983176 67.5265533,15.9149605 C67.8212599,15.8469365 68.0858826,15.7449964 68.3202299,15.6087569 C68.5543856,15.4729006 68.743703,15.2989126 68.8876072,15.087176 C69.0311281,14.8756311 69.1027928,14.6257629 69.1027928,14.3383377 C69.1027928,13.8548886 68.917691,13.4729964 68.5472958,13.1930443 C68.1765174,12.9132838 67.7114635,12.6751042 67.1521341,12.478697 C66.5926132,12.2822898 65.987679,12.0854994 65.3375234,11.888709 C64.6873677,11.692685 64.0824335,11.427679 63.5231042,11.0950323 C62.9635832,10.7625772 62.4985293,10.3237749 62.1281341,9.77939162 C61.7573557,9.23500838 61.5720623,8.51702036 61.5720623,7.62466108 C61.5720623,6.76276886 61.7426012,6.00684072 62.0829126,5.35668503 C62.4228407,4.70633772 62.8765892,4.16195449 63.4437749,3.72353533 C64.0105772,3.28492455 64.6643737,2.95572695 65.4057389,2.73651737 C66.1463377,2.51769102 66.9101222,2.40789461 67.6965174,2.40789461 C68.6038228,2.40789461 69.4808527,2.53646946 70.3277988,2.79342754 C71.1745533,3.05038563 71.9381461,3.48171497 72.6183856,4.08626587 L70.1915593,6.73996647 Z" id="Fill-5" fill="#404041" mask="url(#mask-2)"></path>
                <path d="M88.6658683,6.98933653 C88.3178922,6.56643832 87.8905868,6.24088144 87.3843353,6.01400719 C86.8777006,5.78751617 86.2915449,5.67407904 85.6264431,5.67407904 C84.9605749,5.67407904 84.3449102,5.80284551 83.7777246,6.05961198 C83.2109222,6.31676168 82.7190419,6.6758515 82.3034251,7.13688144 C81.8872335,7.59829461 81.5624431,8.14612695 81.3280958,8.78152814 C81.0935569,9.41654611 80.976479,10.1048335 80.976479,10.845624 C80.976479,11.6017437 81.0935569,12.2934802 81.3280958,12.9210251 C81.5624431,13.5487617 81.883976,14.0931449 82.2921198,14.5539832 C82.7006467,15.0153964 83.1804551,15.3746778 83.7323114,15.6316359 C84.2843593,15.888594 84.8781796,16.0171689 85.513006,16.0171689 C86.2390419,16.0171689 86.8811497,15.8661749 87.4408623,15.5634204 C88.0003832,15.2612407 88.4617964,14.8373844 88.8245269,14.2930012 L91.7733174,16.4935281 C91.0926946,17.4458635 90.2308024,18.149097 89.1874491,18.6028455 C88.1442874,19.056594 87.0704671,19.283085 85.9667545,19.283085 C84.7112814,19.283085 83.554491,19.0866778 82.4961916,18.6934802 C81.437509,18.3004743 80.5231138,17.7373126 79.7518563,17.0038036 C78.9805988,16.2704862 78.3796886,15.3819593 77.9483593,14.3384144 C77.5174132,13.2954443 77.3022275,12.1307976 77.3022275,10.845624 C77.3022275,9.5604503 77.5174132,8.39599521 77.9483593,7.3524503 C78.3796886,6.30909701 78.9805988,5.42076168 79.7518563,4.68725269 C80.5231138,3.95393533 81.437509,3.39077365 82.4961916,2.99757605 C83.554491,2.60418683 84.7112814,2.40777964 85.9667545,2.40777964 C86.4203114,2.40777964 86.8928383,2.4495521 87.3843353,2.53252216 C87.8754491,2.61587545 88.3596647,2.74770778 88.8358323,2.92936048 C89.3123832,3.11101317 89.7693892,3.35302515 90.2083832,3.65539641 C90.6466108,3.95795928 91.0398084,4.32835449 91.3877844,4.76658204 L88.6658683,6.98933653 Z" id="Fill-6" fill="#404041" mask="url(#mask-2)"></path>
                <path d="M99.0041677,10.8456431 C99.0041677,11.6017629 99.1212455,12.2934994 99.3557844,12.9208527 C99.5903234,13.5487808 99.9266108,14.0929725 100.365222,14.5540024 C100.803641,15.0154156 101.329246,15.374697 101.941653,15.6316551 C102.554251,15.8886132 103.238132,16.017188 103.994635,16.017188 C104.75018,16.017188 105.434826,15.8886132 106.047042,15.6316551 C106.659449,15.374697 107.184671,15.0154156 107.623665,14.5540024 C108.061701,14.0929725 108.397988,13.5487808 108.63291,12.9208527 C108.867066,12.2934994 108.984527,11.6017629 108.984527,10.8456431 C108.984527,10.1048527 108.867066,9.41656527 108.63291,8.78154731 C108.397988,8.14614611 108.061701,7.59831377 107.623665,7.1369006 C107.184671,6.67587066 106.659449,6.31658922 106.047042,6.05963114 C105.434826,5.80267305 104.75018,5.6740982 103.994635,5.6740982 C103.238132,5.6740982 102.554251,5.80267305 101.941653,6.05963114 C101.329246,6.31658922 100.803641,6.67587066 100.365222,7.1369006 C99.9266108,7.59831377 99.5903234,8.14614611 99.3557844,8.78154731 C99.1212455,9.41656527 99.0041677,10.1048527 99.0041677,10.8456431 M95.3299162,10.8456431 C95.3299162,9.56046946 95.5451018,8.39601437 95.9760479,7.35246946 C96.4073772,6.30911617 97.0082874,5.42078084 97.7795449,4.68727186 C98.5508024,3.95395449 99.4651976,3.39079281 100.52388,2.99759521 C101.58218,2.60420599 102.739162,2.4077988 103.994635,2.4077988 C105.249341,2.4077988 106.406132,2.60420599 107.464814,2.99759521 C108.523114,3.39079281 109.437892,3.95395449 110.20915,4.68727186 C110.980407,5.42078084 111.581701,6.30911617 112.012647,7.35246946 C112.443593,8.39601437 112.658778,9.56046946 112.658778,10.8456431 C112.658778,12.1308168 112.443593,13.2952719 112.012647,14.3384335 C111.581701,15.3817868 110.980407,16.2705054 110.20915,17.0038228 C109.437892,17.7373317 108.523114,18.3004934 107.464814,18.6933078 C106.406132,19.086697 105.249341,19.2831042 103.994635,19.2831042 C102.739162,19.2831042 101.58218,19.086697 100.52388,18.6933078 C99.4651976,18.3004934 98.5508024,17.7373317 97.7795449,17.0038228 C97.0082874,16.2705054 96.4073772,15.3817868 95.9760479,14.3384335 C95.5451018,13.2952719 95.3299162,12.1308168 95.3299162,10.8456431" id="Fill-7" fill="#404041" mask="url(#mask-2)"></path>
                <polygon id="Fill-8" fill="#404041" mask="url(#mask-2)" points="115.759157 2.81592335 119.796714 2.81592335 123.766055 13.3406659 123.811277 13.3406659 127.848834 2.81592335 131.636714 2.81592335 125.013672 18.8749413 122.178127 18.8749413"></polygon>
                <polygon id="Fill-9" fill="#404041" mask="url(#mask-2)" points="136.41577 2.81592335 147.326046 2.81592335 147.326046 6.08222275 139.954165 6.08222275 139.954165 9.07623473 146.91771 9.07623473 146.91771 12.3425341 139.954165 12.3425341 139.954165 15.6086419 147.734189 15.6086419 147.734189 18.8749413 136.41577 18.8749413"></polygon>
                <path d="M157.206247,9.46186347 L159.293145,9.46186347 C159.610654,9.46186347 159.946941,9.45055808 160.302582,9.42775569 C160.657265,9.40533653 160.978798,9.33712096 161.266223,9.22368383 C161.553265,9.11024671 161.791828,8.93261796 161.980953,8.69060599 C162.169696,8.44878563 162.264354,8.10885749 162.264354,7.67005509 C162.264354,7.26152814 162.181001,6.93673772 162.015061,6.69472575 C161.848354,6.45290539 161.636618,6.26780359 161.37966,6.13903713 C161.122319,6.01084551 160.827612,5.92346826 160.494965,5.87805509 C160.162319,5.83283353 159.837528,5.81003114 159.519636,5.81003114 L157.206247,5.81003114 L157.206247,9.46186347 Z M153.667851,2.81582754 L159.88275,2.81582754 C160.69942,2.81582754 161.473935,2.8953485 162.207444,3.05400719 C162.940953,3.21285749 163.583636,3.47767186 164.135684,3.84806707 C164.68754,4.21884551 165.125768,4.71762395 165.451325,5.34497725 C165.776307,5.97271377 165.938798,6.75527665 165.938798,7.69285749 C165.938798,8.82684551 165.644091,9.79048623 165.054486,10.5847377 C164.464307,11.3784144 163.602414,11.8814084 162.468426,12.0931449 L166.551205,18.8750371 L162.309768,18.8750371 L158.952834,12.4558754 L157.206247,12.4558754 L157.206247,18.8750371 L153.667851,18.8750371 L153.667851,2.81582754 Z" id="Fill-10" fill="#404041" mask="url(#mask-2)"></path>
                <polygon id="Fill-11" fill="#404041" mask="url(#mask-2)" points="175.106529 12.0249868 169.073092 2.81588503 173.47338 2.81588503 176.875919 8.82690299 180.482529 2.81588503 184.678362 2.81588503 178.644925 12.0249868 178.644925 18.874903 175.106529 18.874903"></polygon>
                <path d="M39.542515,30.2797605 C39.3995689,30.4937964 39.2228982,30.6961437 39.012503,30.8866108 C38.8021078,31.0772695 38.5618204,31.2422515 38.292024,31.3807904 C38.0222275,31.5200958 37.7305868,31.6293174 37.4167186,31.7084551 C37.1030419,31.7875928 36.7717365,31.8272575 36.4228024,31.8272575 C35.7954491,31.8272575 35.2140838,31.716503 34.6783234,31.4944192 C34.1423713,31.2723353 33.6777006,30.9644072 33.2848862,30.5715928 C32.8918802,30.1785868 32.5849102,29.7123832 32.3626347,29.1722156 C32.1397844,28.6326228 32.0292216,28.0411018 32.0292216,27.3982275 C32.0292216,26.7555449 32.1397844,26.1638323 32.3626347,25.6236647 C32.5849102,25.0842635 32.8918802,24.6180599 33.2848862,24.2250539 C33.6777006,23.8322395 34.1423713,23.5243114 34.6783234,23.3022275 C35.2140838,23.0801437 35.7954491,22.9688144 36.4228024,22.9688144 C36.9461078,22.9688144 37.4703713,23.0720958 37.9944431,23.2780838 C38.518515,23.4848383 38.9663234,23.8262994 39.3394012,24.3020838 L38.5896048,24.8621796 C38.5024192,24.7272814 38.3828503,24.5923832 38.2326228,24.4567186 C38.0816287,24.3218204 37.9085988,24.2032096 37.7142994,24.0997365 C37.5201916,23.9972216 37.3111377,23.9136766 37.0890539,23.8498683 C36.8669701,23.7860599 36.6448862,23.7546347 36.4228024,23.7546347 C35.8826347,23.7546347 35.3988024,23.8542754 34.9699641,24.0522156 C34.5411257,24.2507305 34.1783952,24.5168862 33.8808144,24.8502994 C33.5832335,25.1831377 33.3544431,25.5702036 33.1961677,26.0107305 C33.0371257,26.4512575 32.957988,26.9138204 32.957988,27.3982275 C32.957988,27.8820599 33.0371257,28.3446228 33.1961677,28.7851497 C33.3544431,29.2256766 33.5832335,29.6127425 33.8808144,29.9461557 C34.1783952,30.2797605 34.5411257,30.5459162 34.9699641,30.7438563 C35.3988024,30.9423713 35.8826347,31.0414371 36.4228024,31.0414371 C36.6448862,31.0414371 36.8648623,31.021509 37.0833054,30.9820359 C37.3017485,30.9423713 37.5157844,30.8749222 37.7261796,30.7796886 C37.9363832,30.6844551 38.1350898,30.555497 38.3221078,30.3926228 C38.5081677,30.2299401 38.6804311,30.025485 38.8394731,29.7790659 L39.542515,30.2797605 Z" id="Fill-12" fill="#404041" mask="url(#mask-2)"></path>
                <polygon id="Fill-13" fill="#404041" mask="url(#mask-2)" points="43.1987545 23.1827737 44.0564311 23.1827737 44.0564311 26.8382467 48.6523593 26.8382467 48.6523593 23.1827737 49.5100359 23.1827737 49.5100359 31.6131449 48.6523593 31.6131449 48.6523593 27.6240671 44.0564311 27.6240671 44.0564311 31.6131449 43.1987545 31.6131449"></polygon>
                <path d="M54.9188024,26.9101605 L56.4427305,26.9101605 C56.8238563,26.9101605 57.1471138,26.8704958 57.4132695,26.7905916 C57.6792335,26.7114539 57.8911617,26.6058731 58.0502036,26.475382 C58.2092455,26.3443162 58.3244072,26.1896814 58.395497,26.0107114 C58.4673533,25.8326994 58.5024192,25.6397413 58.5024192,25.4331784 C58.5024192,25.2352383 58.4673533,25.046879 58.395497,24.867909 C58.3244072,24.6891305 58.2092455,24.5329629 58.0502036,24.3974898 C57.8911617,24.2625916 57.6792335,24.1575856 57.4132695,24.0822802 C57.1471138,24.0067832 56.8238563,23.9686515 56.4427305,23.9686515 L54.9188024,23.9686515 L54.9188024,26.9101605 Z M54.9188024,31.6132024 L54.0611257,31.6132024 L54.0611257,23.1828311 L56.6575329,23.1828311 C57.5144431,23.1828311 58.1910419,23.3696575 58.6871377,23.7427353 C59.1834251,24.1158132 59.4311856,24.6795497 59.4311856,25.4331784 C59.4311856,26.0210587 59.2472335,26.5150467 58.8777964,26.915909 C58.5083593,27.3169629 57.9747066,27.549394 57.2760719,27.6124359 L59.7053892,31.6132024 L58.6578204,31.6132024 L56.347497,27.6959808 L54.9188024,27.6959808 L54.9188024,31.6132024 Z" id="Fill-14" fill="#404041" mask="url(#mask-2)"></path>
                <polygon id="Fill-15" fill="#404041" mask="url(#mask-2)" points="63.4743952 31.6131257 64.3320719 31.6131257 64.3320719 23.1827545 63.4743952 23.1827545"></polygon>
                <path d="M72.8246994,24.5762491 C72.4516216,24.0286084 71.9078132,23.7545964 71.1936575,23.7545964 C70.9709988,23.7545964 70.7531305,23.7844886 70.5385198,23.8438898 C70.3244838,23.903291 70.1315257,23.9948838 69.9607952,24.1180934 C69.7900647,24.241303 69.6536335,24.3995784 69.5503521,24.5938778 C69.4470707,24.7887521 69.3957174,25.016776 69.3957174,25.2785246 C69.3957174,25.6596503 69.5026395,25.9556982 69.7166754,26.1653269 C69.9314778,26.3764886 70.1976335,26.5487521 70.5149509,26.6836503 C70.8324599,26.8185485 71.1798611,26.9394587 71.5565796,27.0463808 C71.9332982,27.1542611 72.280891,27.2972072 72.5982084,27.4752192 C72.9155257,27.6541892 73.1816814,27.8900695 73.3964838,28.1840096 C73.6105198,28.4781413 73.7174419,28.8790036 73.7174419,29.3862132 C73.7174419,29.7673389 73.6361964,30.1110994 73.4735138,30.4161533 C73.3106395,30.7225485 73.0966036,30.9783569 72.8306395,31.1843449 C72.5644838,31.3910994 72.266903,31.5493749 71.9377054,31.6607042 C71.6079329,31.7714587 71.2766275,31.8272192 70.9437892,31.8272192 C70.4269988,31.8272192 69.937418,31.7304527 69.4727473,31.5353868 C69.0086515,31.3410874 68.6135377,31.0216623 68.2881725,30.577303 L69.0739928,30.0173988 C69.256412,30.3274347 69.5093461,30.5751952 69.8339449,30.7620216 C70.1579689,30.9482731 70.5421605,31.0413988 70.9847952,31.0413988 C71.1988311,31.0413988 71.4122922,31.0076743 71.6263281,30.9402251 C71.8395976,30.872776 72.0315976,30.7739018 72.2017533,30.6426443 C72.3717174,30.5113868 72.5117892,30.350812 72.6231186,30.1603449 C72.7338731,29.9696862 72.7888671,29.7520096 72.7888671,29.505782 C72.7888671,29.2118419 72.7271665,28.9677222 72.6047234,28.7734228 C72.4817054,28.5791234 72.3190228,28.4164407 72.1166754,28.2851832 C71.9135617,28.1541174 71.6834299,28.0448958 71.4253222,27.9575186 C71.167406,27.8703329 70.9020168,27.7831473 70.6278132,27.6959617 C70.3538012,27.608776 70.088412,27.5089437 69.8303042,27.3983808 C69.572388,27.2868599 69.3422563,27.1462132 69.139909,26.975291 C68.9367952,26.8045605 68.7741126,26.5905246 68.6516695,26.3324168 C68.5284599,26.0745006 68.4669509,25.7512431 68.4669509,25.3620695 C68.4669509,24.9573749 68.5439808,24.6040335 68.699382,24.3020455 C68.8540168,24.000824 69.0600048,23.7509557 69.317921,23.5522491 C69.5760287,23.3535425 69.8676695,23.2069557 70.1932263,23.1117222 C70.5185916,23.0164886 70.8521964,22.968776 71.1936575,22.968776 C71.6694419,22.968776 72.1026874,23.0442731 72.4910946,23.1952671 C72.8804599,23.3454946 73.2418491,23.6116503 73.5744958,23.992776 L72.8246994,24.5762491 Z" id="Fill-16" fill="#404041" mask="url(#mask-2)"></path>
                <polygon id="Fill-17" fill="#404041" mask="url(#mask-2)" points="80.6517844 31.6131066 79.7941078 31.6131066 79.7941078 23.9685557 76.971976 23.9685557 76.971976 23.1827353 83.4739162 23.1827353 83.4739162 23.9685557 80.6517844 23.9685557"></polygon>
                <polygon id="Fill-18" fill="#404041" mask="url(#mask-2)" points="87.0641437 31.6131257 87.9218204 31.6131257 87.9218204 23.1827545 87.0641437 23.1827545"></polygon>
                <path d="M93.6912479,28.6129054 L97.346721,28.6129054 L95.525212,24.1833006 L93.6912479,28.6129054 Z M92.4407569,31.6130491 L91.4409006,31.6130491 L95.1080623,23.1826778 L95.9415952,23.1826778 L99.6087569,31.6130491 L98.6089006,31.6130491 L97.6803257,29.3987257 L93.3693317,29.3987257 L92.4407569,31.6130491 Z" id="Fill-19" fill="#404041" mask="url(#mask-2)"></path>
                <polygon id="Fill-20" fill="#404041" mask="url(#mask-2)" points="109.218549 30.3274156 109.242692 30.3274156 109.242692 23.1827928 110.099602 23.1827928 110.099602 31.6131641 109.02789 31.6131641 104.003123 24.3974515 103.979746 24.3974515 103.979746 31.6131641 103.122069 31.6131641 103.122069 23.1827928 104.193782 23.1827928"></polygon>
                <path d="M127.400795,30.2797605 C127.257849,30.4937964 127.081178,30.6961437 126.870783,30.8866108 C126.660388,31.0772695 126.420101,31.2422515 126.150304,31.3807904 C125.880508,31.5200958 125.588867,31.6293174 125.274999,31.7084551 C124.961322,31.7875928 124.630017,31.8272575 124.281083,31.8272575 C123.653538,31.8272575 123.072364,31.716503 122.536604,31.4944192 C122.000651,31.2723353 121.535981,30.9644072 121.143166,30.5715928 C120.75016,30.1785868 120.442999,29.7123832 120.220915,29.1722156 C119.998065,28.6326228 119.887502,28.0411018 119.887502,27.3982275 C119.887502,26.7555449 119.998065,26.1638323 120.220915,25.6236647 C120.442999,25.0842635 120.75016,24.6180599 121.143166,24.2250539 C121.535981,23.8322395 122.000651,23.5243114 122.536604,23.3022275 C123.072364,23.0801437 123.653538,22.9688144 124.281083,22.9688144 C124.804388,22.9688144 125.328651,23.0720958 125.852723,23.2780838 C126.376795,23.4848383 126.824604,23.8262994 127.197681,24.3020838 L126.447885,24.8621796 C126.360699,24.7272814 126.241131,24.5923832 126.090903,24.4567186 C125.939909,24.3218204 125.766879,24.2032096 125.57258,24.0997365 C125.378472,23.9972216 125.169418,23.9136766 124.947334,23.8498683 C124.72525,23.7860599 124.503166,23.7546347 124.281083,23.7546347 C123.740915,23.7546347 123.257083,23.8542754 122.828244,24.0522156 C122.399406,24.2507305 122.036675,24.5168862 121.739095,24.8502994 C121.441514,25.1831377 121.212723,25.5702036 121.054448,26.0107305 C120.895406,26.4512575 120.816268,26.9138204 120.816268,27.3982275 C120.816268,27.8820599 120.895406,28.3446228 121.054448,28.7851497 C121.212723,29.2256766 121.441514,29.6127425 121.739095,29.9461557 C122.036675,30.2797605 122.399406,30.5459162 122.828244,30.7438563 C123.257083,30.9423713 123.740915,31.0414371 124.281083,31.0414371 C124.503166,31.0414371 124.723143,31.021509 124.941586,30.9820359 C125.160029,30.9423713 125.374065,30.8749222 125.58446,30.7796886 C125.794663,30.6844551 125.99337,30.555497 126.180388,30.3926228 C126.366448,30.2299401 126.538711,30.025485 126.697753,29.7790659 L127.400795,30.2797605 Z" id="Fill-21" fill="#404041" mask="url(#mask-2)"></path>
                <polygon id="Fill-22" fill="#404041" mask="url(#mask-2)" points="131.057035 23.1827737 131.91452 23.1827737 131.91452 26.8382467 136.51064 26.8382467 136.51064 23.1827737 137.368125 23.1827737 137.368125 31.6131449 136.51064 31.6131449 136.51064 27.6240671 131.91452 27.6240671 131.91452 31.6131449 131.057035 31.6131449"></polygon>
                <path d="M148.001954,28.4699593 C148.001954,28.8188934 147.960182,29.1898635 147.876637,29.5826778 C147.793859,29.9754922 147.636925,30.3391808 147.406793,30.672594 C147.175895,31.0061988 146.860685,31.2817437 146.459631,31.5001868 C146.058769,31.7178635 145.544853,31.827085 144.918266,31.827085 C144.282673,31.827085 143.766649,31.7178635 143.370002,31.5001868 C142.972781,31.2817437 142.659871,31.0061988 142.429547,30.672594 C142.198649,30.3391808 142.042673,29.9754922 141.959128,29.5826778 C141.875392,29.1898635 141.833619,28.8188934 141.833619,28.4699593 L141.833619,23.1828695 L142.691296,23.1828695 L142.691296,28.3747257 C142.691296,28.7792287 142.73096,29.1268216 142.810098,29.4163545 C142.890002,29.7058874 142.994817,29.9500072 143.126074,30.1485222 C143.25714,30.3472287 143.403727,30.5041629 143.566601,30.6191329 C143.729284,30.7342946 143.891966,30.823588 144.054649,30.8866299 C144.217523,30.9504383 144.374266,30.9922108 144.52526,31.0121389 C144.675679,31.0318754 144.806745,31.0414563 144.918266,31.0414563 C145.020781,31.0414563 145.149739,31.0318754 145.30514,31.0121389 C145.459966,30.9922108 145.618242,30.9504383 145.780925,30.8866299 C145.943607,30.823588 146.106481,30.7342946 146.269164,30.6191329 C146.431847,30.5041629 146.5792,30.3472287 146.709691,30.1485222 C146.840949,29.9500072 146.945763,29.7058874 147.025667,29.4163545 C147.104805,29.1268216 147.144278,28.7792287 147.144278,28.3747257 L147.144278,23.1828695 L148.001954,23.1828695 L148.001954,28.4699593 Z" id="Fill-23" fill="#404041" mask="url(#mask-2)"></path>
                <path d="M153.31771,26.9101605 L154.841638,26.9101605 C155.222764,26.9101605 155.546022,26.8704958 155.812177,26.7905916 C156.078141,26.7114539 156.290069,26.6058731 156.449111,26.475382 C156.608153,26.3443162 156.723315,26.1896814 156.794405,26.0107114 C156.866261,25.8326994 156.901519,25.6397413 156.901519,25.4331784 C156.901519,25.2352383 156.866261,25.046879 156.794405,24.867909 C156.723315,24.6891305 156.608153,24.5329629 156.449111,24.3974898 C156.290069,24.2625916 156.078141,24.1575856 155.812177,24.0822802 C155.546022,24.0067832 155.222764,23.9686515 154.841638,23.9686515 L153.31771,23.9686515 L153.31771,26.9101605 Z M153.31771,31.6132024 L152.460225,31.6132024 L152.460225,23.1828311 L155.056441,23.1828311 C155.913351,23.1828311 156.58995,23.3696575 157.086237,23.7427353 C157.582333,24.1158132 157.830093,24.6795497 157.830093,25.4331784 C157.830093,26.0210587 157.646141,26.5150467 157.276704,26.915909 C156.907267,27.3169629 156.373614,27.549394 155.675171,27.6124359 L158.104297,31.6132024 L157.056728,31.6132024 L154.746405,27.6959808 L153.31771,27.6959808 L153.31771,31.6132024 Z" id="Fill-24" fill="#404041" mask="url(#mask-2)"></path>
                <path d="M168.750486,30.2797605 C168.60754,30.4937964 168.430869,30.6961437 168.220474,30.8866108 C168.010079,31.0772695 167.769792,31.2422515 167.499995,31.3807904 C167.230199,31.5200958 166.938558,31.6293174 166.62469,31.7084551 C166.311013,31.7875928 165.979708,31.8272575 165.630774,31.8272575 C165.00342,31.8272575 164.422055,31.716503 163.886295,31.4944192 C163.350343,31.2723353 162.885672,30.9644072 162.492857,30.5715928 C162.099851,30.1785868 161.79269,29.7123832 161.570606,29.1722156 C161.347756,28.6326228 161.237193,28.0411018 161.237193,27.3982275 C161.237193,26.7555449 161.347756,26.1638323 161.570606,25.6236647 C161.79269,25.0842635 162.099851,24.6180599 162.492857,24.2250539 C162.885672,23.8322395 163.350343,23.5243114 163.886295,23.3022275 C164.422055,23.0801437 165.00342,22.9688144 165.630774,22.9688144 C166.154079,22.9688144 166.678343,23.0720958 167.202414,23.2780838 C167.726486,23.4848383 168.174295,23.8262994 168.547372,24.3020838 L167.797576,24.8621796 C167.71039,24.7272814 167.590822,24.5923832 167.440594,24.4567186 C167.2896,24.3218204 167.11657,24.2032096 166.922271,24.0997365 C166.728163,23.9972216 166.519301,23.9136766 166.297025,23.8498683 C166.074941,23.7860599 165.852857,23.7546347 165.630774,23.7546347 C165.090606,23.7546347 164.606774,23.8542754 164.177935,24.0522156 C163.749097,24.2507305 163.386366,24.5168862 163.088786,24.8502994 C162.791205,25.1831377 162.562414,25.5702036 162.404139,26.0107305 C162.244905,26.4512575 162.165959,26.9138204 162.165959,27.3982275 C162.165959,27.8820599 162.244905,28.3446228 162.404139,28.7851497 C162.562414,29.2256766 162.791205,29.6127425 163.088786,29.9461557 C163.386366,30.2797605 163.749097,30.5459162 164.177935,30.7438563 C164.606774,30.9423713 165.090606,31.0414371 165.630774,31.0414371 C165.852857,31.0414371 166.072834,31.021509 166.291277,30.9820359 C166.50972,30.9423713 166.723756,30.8749222 166.934151,30.7796886 C167.144546,30.6844551 167.343061,30.555497 167.530079,30.3926228 C167.716139,30.2299401 167.888402,30.025485 168.047444,29.7790659 L168.750486,30.2797605 Z" id="Fill-25" fill="#404041" mask="url(#mask-2)"></path>
                <polygon id="Fill-26" fill="#404041" mask="url(#mask-2)" points="172.406726 23.1827737 173.264402 23.1827737 173.264402 26.8382467 177.860331 26.8382467 177.860331 23.1827737 178.718007 23.1827737 178.718007 31.6131449 177.860331 31.6131449 177.860331 27.6240671 173.264402 27.6240671 173.264402 31.6131449 172.406726 31.6131449"></polygon>
                <path d="M22.186079,3.6196982 L22.186079,13.1327042 C22.186079,18.1327521 18.132618,22.1860216 13.1325701,22.1860216 C8.13252216,22.1860216 4.07906108,18.1327521 4.07906108,13.1327042 C4.07906108,8.13246467 8.13252216,4.07919521 13.1325701,4.07919521 C15.2815521,4.07919521 17.2557796,4.82803353 18.8084503,6.07890778 L18.8084503,1.28676407 C17.090606,0.462237126 15.165624,5.74850299e-05 13.1325701,5.74850299e-05 C5.87968383,5.74850299e-05 -7.66467056e-05,5.87962635 -7.66467056e-05,13.1327042 C-7.66467056e-05,17.1572311 1.81089341,20.758285 4.66176766,23.167291 L13.3216958,31.8272192 L21.9005701,22.9088 C24.5795641,20.5043928 26.2652168,17.0156263 26.2652168,13.1327042 C26.2652168,9.38927904 24.6989413,6.01184192 22.186079,3.6196982" id="Fill-27" fill="#F7931D" mask="url(#mask-2)"></path>
                <path d="M7.45676647,13.132685 C7.45676647,16.2673437 9.99798802,18.8085653 13.1326467,18.8085653 C16.2673054,18.8085653 18.8083353,16.2673437 18.8083353,13.132685 C18.8083353,9.99802635 16.2673054,7.45680479 13.1326467,7.45680479 C9.99798802,7.45680479 7.45676647,9.99802635 7.45676647,13.132685" id="Fill-28" fill="#F7931D" mask="url(#mask-2)"></path>
            </g>
        </g>
    </g>
</svg>