<?xml version="1.0" encoding="UTF-8"?>
<svg width="12px" height="12px" viewBox="0 0 12 12" version="1.1" xmlns="http://www.w3.org/2000/svg" xmlns:xlink="http://www.w3.org/1999/xlink">
    <!-- Generator: Sketch 40.2 (33826) - http://www.bohemiancoding.com/sketch -->
    <title>Page 1</title>
    <desc>Created with Sketch.</desc>
    <defs></defs>
    <g id="Page-1" stroke="none" stroke-width="1" fill="none" fill-rule="evenodd">
        <g id="small-style-copy" transform="translate(-50.000000, -412.000000)">
            <g id="Page-1" transform="translate(48.000000, 410.000000)">
                <polygon id="Stroke-1" stroke-opacity="0.00784313771" stroke="#000000" stroke-width="1.33333335e-11" points="0 0 15.999999 0 15.999999 15.999999 0 15.999999"></polygon>
                <path d="M7.99999952,7.99999952 C9.47333276,7.99999952 10.666666,6.80666626 10.666666,5.33333301 C10.666666,3.85999974 9.47333276,2.66666651 7.99999952,2.66666651 C6.52666625,2.66666651 5.33333301,3.85999974 5.33333301,5.33333301 C5.33333301,6.80666626 6.52666625,7.99999952 7.99999952,7.99999952 L7.99999952,7.99999952 Z M7.99999952,9.33333277 C6.21999957,9.33333277 2.66666651,10.2266661 2.66666651,11.9999993 L2.66666651,13.3333325 L13.3333325,13.3333325 L13.3333325,11.9999993 C13.3333325,10.2266661 9.77999941,9.33333277 7.99999952,9.33333277 L7.99999952,9.33333277 Z" id="Fill-2" fill="#404042"></path>
            </g>
        </g>
    </g>
</svg>