<?xml version="1.0" encoding="UTF-8" standalone="no"?>
<svg width="43px" height="43px" viewBox="0 0 43 43" version="1.1" xmlns="http://www.w3.org/2000/svg" xmlns:xlink="http://www.w3.org/1999/xlink">
    <!-- Generator: Sketch 39.1 (31720) - http://www.bohemiancoding.com/sketch -->
    <title>Artboard 3</title>
    <desc>Created with Sketch.</desc>
    <defs></defs>
    <g id="Page-1" stroke="none" stroke-width="1" fill="none" fill-rule="evenodd">
        <g id="Artboard-3" fill="#404042">
            <g id="Group-2-Copy" transform="translate(11.000000, 12.000000)">
                <g id="social-twitter">
                    <path d="M24,2.31355932 C23.1152542,2.70508475 22.1694915,2.96949153 21.1728814,3.09152542 C22.1898305,2.48135593 22.9728814,1.51525424 23.3389831,0.366101695 C22.3881356,0.930508475 21.3355932,1.34237288 20.2118644,1.56101695 C19.3118644,0.6 18.0305085,0 16.6169492,0 C13.8966102,0 11.6949153,2.20677966 11.6949153,4.92711864 C11.6949153,5.31355932 11.7355932,5.68983051 11.8220339,6.05084746 C7.72881356,5.84745763 4.09830508,3.88474576 1.67288136,0.9 C1.25084746,1.62711864 1.00677966,2.47627119 1.00677966,3.37627119 C1.00677966,5.08474576 1.88135593,6.59491525 3.20338983,7.47966102 C2.38983051,7.45932203 1.62711864,7.23559322 0.966101695,6.86440678 L0.966101695,6.92542373 C0.966101695,9.31525424 2.66440678,11.3033898 4.91694915,11.7559322 C4.50508475,11.8677966 4.06779661,11.9288136 3.62033898,11.9288136 C3.30508475,11.9288136 2.99491525,11.8983051 2.69491525,11.8372881 C3.32033898,13.7949153 5.14067797,15.2186441 7.29661017,15.259322 C5.61355932,16.5813559 3.48813559,17.3694915 1.17966102,17.3694915 C0.783050847,17.3694915 0.391525424,17.3440678 0.00508474576,17.2983051 C2.17627119,18.7118644 4.76440678,19.5254237 7.54067797,19.5254237 C16.6067797,19.5254237 21.559322,12.0152542 21.559322,5.50169492 C21.559322,5.28813559 21.5542373,5.07457627 21.5440678,4.86610169 C22.5050847,4.16949153 23.3389831,3.30508475 24,2.31355932 L24,2.31355932 Z" id="Shape"></path>
                </g>
            </g>
        </g>
    </g>
</svg>